# Created by Kenney (www.kenney.nl)

mtllib AlgorandCoin.mtl

v 8 7 0.5
v 7 7 0.5
v 7.965926 7.258819 0.5
v 7 8 0.5
v 7.866025 7.5 0.5
v 7.707107 7.707107 0.5
v 7.5 7.866025 0.5
v 7.258819 7.965926 0.5
v 7.707107 7.707107 -0.5
v 7.5 7.866025 -0.5
v 7.866025 7.5 -0.5
v 7.965926 7.258819 -0.5
v 8 7 -0.5
v 7.258819 7.965926 -0.5
v 7 8 -0.5
v 7 7 -0.5
v 7.258819 -5.965926 0.5
v 7.258819 -5.965926 -0.5
v 7 -6 0.5
v 7 -6 -0.5
v 7.5 -5.866025 -0.5
v 7.5 -5.866025 0.5
v 7.707107 -5.707107 -0.5
v 7.707107 -5.707107 0.5
v 7.866025 -5.5 0.5
v 7.866025 -5.5 -0.5
v 7.965926 -5.258819 0.5
v 7.965926 -5.258819 -0.5
v 8 -5 0.5
v 8 -5 -0.5
v 7 -5 -0.5
v 7 -5 0.5
v -7.258819 7.965926 -0.5
v -7.258819 7.965926 0.5
v -7.5 7.866025 -0.5
v -7.5 7.866025 0.5
v -7 8 0.5
v -7 8 -0.5
v -7.707107 7.707107 -0.5
v -7.707107 7.707107 0.5
v -7.866025 7.5 0.5
v -7.866025 7.5 -0.5
v -7.965926 7.258819 0.5
v -7.965926 7.258819 -0.5
v -8 7 0.5
v -8 7 -0.5
v -7 7 -0.5
v -7 7 0.5
v -7.5 -5.866025 0.5
v -7.5 -5.866025 -0.5
v -7.707107 -5.707107 0.5
v -7.707107 -5.707107 -0.5
v -7.258819 -5.965926 -0.5
v -7.258819 -5.965926 0.5
v -7 -6 -0.5
v -7 -6 0.5
v -7.866025 -5.5 -0.5
v -7.866025 -5.5 0.5
v -7.965926 -5.258819 -0.5
v -7.965926 -5.258819 0.5
v -8 -5 -0.5
v -8 -5 0.5
v -7 -5 -0.5
v -7 -5 0.5

vn 0 0 1
vn 0.7071068 0.7071068 0
vn 0.5 0.8660254 0
vn 0.8660254 0.5 0
vn 0.9659258 0.258819 0
vn 0.9914449 0.1305262 0
vn 0.2588191 0.9659258 0
vn 0.1305262 0.9914449 0
vn 0 0 -1
vn 0 -1 0
vn -1 0 0
vn 0.258819 -0.9659258 0
vn 0.1305262 -0.9914449 0
vn 0.5 -0.8660254 0
vn 0.7071068 -0.7071068 0
vn 0.8660254 -0.5 0
vn 0.9659258 -0.258819 0
vn 0.9914449 -0.1305262 0
vn 0 1 0
vn -0.258819 0.9659258 0
vn -0.5 0.8660254 0
vn -0.1305262 0.9914449 0
vn -0.7071068 0.7071068 0
vn -0.8660254 0.5 0
vn -0.9659258 0.258819 0
vn -0.9914449 0.1305262 0
vn 1 0 0
vn -0.5 -0.8660254 0
vn -0.7071068 -0.7071068 0
vn -0.258819 -0.9659258 0
vn -0.1305262 -0.9914449 0
vn -0.8660254 -0.5 0
vn -0.9659258 -0.258819 0
vn -0.9914449 -0.1305262 0

vt 0.6875 0.0625

usemtl AlgorandCoin

f 3/1/1 2/1/1 1/1/1
f 2/1/1 3/1/1 4/1/1
f 4/1/1 3/1/1 5/1/1
f 4/1/1 5/1/1 6/1/1
f 4/1/1 6/1/1 7/1/1
f 4/1/1 7/1/1 8/1/1
f 10/1/3 6/1/2 9/1/2
f 6/1/2 10/1/3 7/1/3
f 6/1/2 11/1/4 9/1/2
f 11/1/4 6/1/2 5/1/4
f 5/1/4 12/1/5 11/1/4
f 12/1/5 5/1/4 3/1/5
f 3/1/5 13/1/6 12/1/5
f 13/1/6 3/1/5 1/1/6
f 14/1/7 7/1/3 10/1/3
f 7/1/3 14/1/7 8/1/7
f 15/1/8 8/1/7 14/1/7
f 8/1/7 15/1/8 4/1/8
f 16/1/9 12/1/9 13/1/9
f 12/1/9 16/1/9 15/1/9
f 12/1/9 15/1/9 11/1/9
f 11/1/9 15/1/9 9/1/9
f 9/1/9 15/1/9 10/1/9
f 10/1/9 15/1/9 14/1/9
f 2/1/10 13/1/10 1/1/10
f 13/1/10 2/1/10 16/1/10
f 2/1/11 15/1/11 16/1/11
f 15/1/11 2/1/11 4/1/11
f 19/1/13 18/1/12 17/1/12
f 18/1/12 19/1/13 20/1/13
f 21/1/14 17/1/12 18/1/12
f 17/1/12 21/1/14 22/1/14
f 23/1/15 22/1/14 21/1/14
f 22/1/14 23/1/15 24/1/15
f 23/1/15 25/1/16 24/1/15
f 25/1/16 23/1/15 26/1/16
f 26/1/16 27/1/17 25/1/16
f 27/1/17 26/1/16 28/1/17
f 28/1/17 29/1/18 27/1/17
f 29/1/18 28/1/17 30/1/18
f 19/1/11 31/1/11 20/1/11
f 31/1/11 19/1/11 32/1/11
f 31/1/19 29/1/19 30/1/19
f 29/1/19 31/1/19 32/1/19
f 31/1/9 18/1/9 20/1/9
f 18/1/9 31/1/9 21/1/9
f 21/1/9 31/1/9 23/1/9
f 23/1/9 31/1/9 26/1/9
f 26/1/9 31/1/9 28/1/9
f 28/1/9 31/1/9 30/1/9
f 17/1/1 32/1/1 19/1/1
f 32/1/1 17/1/1 22/1/1
f 32/1/1 22/1/1 24/1/1
f 32/1/1 24/1/1 25/1/1
f 32/1/1 25/1/1 27/1/1
f 32/1/1 27/1/1 29/1/1
f 35/1/21 34/1/20 33/1/20
f 34/1/20 35/1/21 36/1/21
f 37/1/22 33/1/20 34/1/20
f 33/1/20 37/1/22 38/1/22
f 39/1/23 36/1/21 35/1/21
f 36/1/21 39/1/23 40/1/23
f 39/1/23 41/1/24 40/1/23
f 41/1/24 39/1/23 42/1/24
f 42/1/24 43/1/25 41/1/24
f 43/1/25 42/1/24 44/1/25
f 44/1/25 45/1/26 43/1/25
f 45/1/26 44/1/25 46/1/26
f 37/1/27 47/1/27 38/1/27
f 47/1/27 37/1/27 48/1/27
f 44/1/9 47/1/9 46/1/9
f 47/1/9 44/1/9 38/1/9
f 38/1/9 44/1/9 42/1/9
f 38/1/9 42/1/9 39/1/9
f 38/1/9 39/1/9 35/1/9
f 38/1/9 35/1/9 33/1/9
f 37/1/1 45/1/1 48/1/1
f 45/1/1 37/1/1 43/1/1
f 43/1/1 37/1/1 41/1/1
f 41/1/1 37/1/1 40/1/1
f 40/1/1 37/1/1 36/1/1
f 36/1/1 37/1/1 34/1/1
f 45/1/10 47/1/10 48/1/10
f 47/1/10 45/1/10 46/1/10
f 51/1/29 50/1/28 49/1/28
f 50/1/28 51/1/29 52/1/29
f 53/1/30 49/1/28 50/1/28
f 49/1/28 53/1/30 54/1/30
f 55/1/31 54/1/30 53/1/30
f 54/1/30 55/1/31 56/1/31
f 51/1/29 57/1/32 52/1/29
f 57/1/32 51/1/29 58/1/32
f 58/1/32 59/1/33 57/1/32
f 59/1/33 58/1/32 60/1/33
f 60/1/33 61/1/34 59/1/33
f 61/1/34 60/1/33 62/1/34
f 61/1/19 64/1/19 63/1/19
f 64/1/19 61/1/19 62/1/19
f 64/1/27 55/1/27 63/1/27
f 55/1/27 64/1/27 56/1/27
f 53/1/9 63/1/9 55/1/9
f 63/1/9 53/1/9 50/1/9
f 63/1/9 50/1/9 52/1/9
f 63/1/9 52/1/9 57/1/9
f 63/1/9 57/1/9 59/1/9
f 63/1/9 59/1/9 61/1/9
f 64/1/1 54/1/1 56/1/1
f 54/1/1 64/1/1 49/1/1
f 49/1/1 64/1/1 51/1/1
f 51/1/1 64/1/1 58/1/1
f 58/1/1 64/1/1 60/1/1
f 60/1/1 64/1/1 62/1/1
f 56/1/10 20/1/10 19/1/10
f 20/1/10 56/1/10 55/1/10
f 56/1/11 38/1/11 55/1/11
f 38/1/11 56/1/11 37/1/11
f 38/1/9 20/1/9 55/1/9
f 20/1/9 38/1/9 15/1/9
f 4/1/1 56/1/1 19/1/1
f 56/1/1 4/1/1 37/1/1
f 4/1/27 20/1/27 15/1/27
f 20/1/27 4/1/27 19/1/27
f 38/1/19 4/1/19 15/1/19
f 4/1/19 38/1/19 37/1/19
f 32/1/10 30/1/10 29/1/10
f 30/1/10 32/1/10 31/1/10
f 32/1/11 16/1/11 31/1/11
f 16/1/11 32/1/11 2/1/11
f 16/1/9 30/1/9 31/1/9
f 30/1/9 16/1/9 13/1/9
f 1/1/1 32/1/1 29/1/1
f 32/1/1 1/1/1 2/1/1
f 1/1/27 30/1/27 13/1/27
f 30/1/27 1/1/27 29/1/27
f 16/1/19 1/1/19 13/1/19
f 1/1/19 16/1/19 2/1/19
f 62/1/10 63/1/10 64/1/10
f 63/1/10 62/1/10 61/1/10
f 62/1/11 46/1/11 61/1/11
f 46/1/11 62/1/11 45/1/11
f 46/1/9 63/1/9 61/1/9
f 63/1/9 46/1/9 47/1/9
f 48/1/1 62/1/1 64/1/1
f 62/1/1 48/1/1 45/1/1
f 48/1/27 63/1/27 47/1/27
f 63/1/27 48/1/27 64/1/27
f 46/1/19 48/1/19 47/1/19
f 48/1/19 46/1/19 45/1/19

